<svg xmlns="http://www.w3.org/2000/svg" style="display: none;">
    <symbol id="arrow-down" viewBox="0 0 24 24">
        <path d="M16.59 8.59L12 13.17 7.41 8.59 6 10l6 6 6-6z"/>
    </symbol>
    <symbol id="arrow-down3" xmlns="http://www.w3.org/2000/svg" viewBox="0 0 32 32">
    <g data-name="35-Arrow Down">
    <path d="M25 14h-5v2h5a5 5 0 0 1 5 5v4a5 5 0 0 1-5 5H7a5 5 0 0 1-5-5v-4a5 5 0 0 1 5-5h5v-2H7a7 7 0 0 0-7 7v4a7 7 0 0 0 7 7h18a7 7 0 0 0 7-7v-4a7 7 0 0 0-7-7z"/><path d="m8.29 18.71 7 7a1 1 0 0 0 1.41 0l7-7-1.41-1.41L17 22.59V1h-2v21.59l-5.29-5.3z"/></g>
    </symbol>
</svg>

